<svg width="196" height="146" viewBox="0 0 196 146" fill="none" xmlns="http://www.w3.org/2000/svg">
<path d="M178.411 133.283C174.654 137.099 170.349 140.395 165.622 143.072C165.514 143.135 165.404 143.194 165.293 143.256L157.642 136.831C157.722 136.76 157.811 136.68 157.907 136.593C163.608 131.457 191.911 95.5456 193.797 86.8007C193.667 87.5292 195.499 116.1 178.411 133.283Z" fill="#F0F0F0"/>
<path d="M167.099 144.312C166.954 144.344 166.807 144.375 166.659 144.403L160.919 139.583C161.031 139.545 161.162 139.501 161.312 139.452C163.775 138.625 171.111 136.127 178.411 133.282C186.255 130.224 194.061 126.768 195.74 124.555C195.38 125.069 184.286 140.665 167.099 144.312Z" fill="#F0F0F0"/>
<path d="M178.305 38.237H177.488V16.9901C177.488 15.3752 177.152 13.7761 176.501 12.2842C175.85 10.7922 174.895 9.43658 173.691 8.29469C172.488 7.15279 171.059 6.24699 169.487 5.629C167.914 5.01101 166.229 4.69293 164.526 4.69293H117.081C115.379 4.69293 113.694 5.011 112.121 5.62898C110.549 6.24697 109.12 7.15277 107.916 8.29466C106.713 9.43655 105.758 10.7922 105.107 12.2841C104.455 13.7761 104.12 15.3752 104.12 16.99V133.552C104.12 135.167 104.455 136.766 105.107 138.258C105.758 139.75 106.713 141.106 107.916 142.248C109.12 143.39 110.549 144.295 112.121 144.913C113.694 145.531 115.379 145.849 117.081 145.849H164.526C166.229 145.849 167.914 145.531 169.486 144.913C171.059 144.295 172.488 143.39 173.691 142.248C174.895 141.106 175.85 139.75 176.501 138.258C177.152 136.766 177.488 135.167 177.488 133.552V53.3609H178.305V38.237Z" fill="#3F3D56"/>
<path d="M174.729 17.0745V133.467C174.729 134.673 174.478 135.867 173.992 136.981C173.505 138.096 172.792 139.108 171.893 139.961C170.994 140.813 169.927 141.489 168.752 141.951C167.578 142.412 166.319 142.649 165.048 142.649H117.374C116.103 142.649 114.845 142.411 113.671 141.95C112.497 141.489 111.43 140.812 110.531 139.96C109.632 139.107 108.92 138.095 108.433 136.981C107.947 135.867 107.697 134.673 107.697 133.467V17.0745C107.697 15.8688 107.947 14.6748 108.433 13.5608C108.92 12.4468 109.632 11.4346 110.531 10.5821C111.43 9.72946 112.497 9.05316 113.671 8.59178C114.845 8.1304 116.103 7.89298 117.374 7.89307H123.16C122.876 8.55558 122.768 9.27415 122.845 9.98557C122.922 10.697 123.183 11.3795 123.603 11.973C124.024 12.5665 124.592 13.0529 125.257 13.3893C125.922 13.7258 126.664 13.902 127.418 13.9025H154.598C155.353 13.9031 156.096 13.7277 156.761 13.3915C157.427 13.0554 157.996 12.569 158.417 11.9751C158.838 11.3813 159.098 10.6982 159.175 9.98634C159.252 9.27444 159.143 8.55554 158.857 7.89307H165.048C166.319 7.89263 167.578 8.12979 168.752 8.59101C169.927 9.05223 170.994 9.72846 171.893 10.5811C172.792 11.4337 173.505 12.446 173.992 13.5602C174.478 14.6743 174.729 15.8685 174.729 17.0745Z" fill="white"/>
<path d="M159.899 77.5584H117.995C117.261 77.5576 116.558 77.2806 116.039 76.7882C115.52 76.2958 115.228 75.6282 115.227 74.9318V73.6245C115.228 72.9281 115.52 72.2605 116.039 71.7681C116.558 71.2757 117.261 70.9987 117.995 70.998H159.899C160.633 70.9987 161.337 71.2757 161.856 71.7681C162.375 72.2605 162.667 72.9281 162.667 73.6245V74.9318C162.667 75.6282 162.375 76.2958 161.856 76.7882C161.337 77.2806 160.633 77.5576 159.899 77.5584Z" fill="#F0F0F0"/>
<path d="M159.899 88.8281H117.995C117.261 88.8273 116.558 88.5503 116.039 88.0579C115.52 87.5655 115.228 86.8979 115.227 86.2015V84.8942C115.228 84.1978 115.52 83.5302 116.039 83.0378C116.558 82.5454 117.261 82.2684 117.995 82.2676H159.899C160.633 82.2684 161.337 82.5454 161.856 83.0378C162.375 83.5302 162.667 84.1978 162.667 84.8942V86.2015C162.667 86.8979 162.375 87.5655 161.856 88.0579C161.337 88.5503 160.633 88.8273 159.899 88.8281Z" fill="#F0F0F0"/>
<path d="M161.995 75.0379H120.091C119.321 75.0371 118.582 74.7463 118.037 74.2292C117.492 73.7122 117.186 73.0112 117.185 72.2801V70.9727C117.186 70.2415 117.492 69.5405 118.037 69.0235C118.582 68.5065 119.321 68.2157 120.091 68.2148H161.995C162.766 68.2157 163.505 68.5065 164.05 69.0235C164.595 69.5405 164.901 70.2415 164.902 70.9727V72.2801C164.901 73.0112 164.595 73.7122 164.05 74.2292C163.505 74.7463 162.766 75.0371 161.995 75.0379ZM120.091 68.7401C119.468 68.7408 118.869 68.9762 118.428 69.3948C117.987 69.8133 117.739 70.3808 117.738 70.9727V72.2801C117.739 72.872 117.987 73.4394 118.428 73.858C118.869 74.2765 119.468 74.5119 120.091 74.5126H161.995C162.619 74.5119 163.217 74.2765 163.658 73.858C164.099 73.4394 164.348 72.872 164.348 72.2801V70.9727C164.348 70.3808 164.099 69.8133 163.658 69.3948C163.217 68.9762 162.619 68.7408 161.995 68.7401H120.091Z" fill="#3F3D56"/>
<path d="M161.995 86.3076H120.091C119.321 86.3068 118.582 86.0159 118.037 85.4989C117.492 84.9819 117.186 84.2809 117.185 83.5497V82.2424C117.186 81.5112 117.492 80.8102 118.037 80.2932C118.582 79.7762 119.321 79.4854 120.091 79.4845H161.995C162.766 79.4854 163.505 79.7762 164.05 80.2932C164.595 80.8102 164.901 81.5112 164.902 82.2424V83.5497C164.901 84.2809 164.595 84.9819 164.05 85.4989C163.505 86.0159 162.766 86.3068 161.995 86.3076ZM120.091 80.0098C119.468 80.0105 118.869 80.2459 118.428 80.6645C117.987 81.083 117.739 81.6505 117.738 82.2424V83.5497C117.739 84.1416 117.987 84.7091 118.428 85.1277C118.869 85.5462 119.468 85.7816 120.091 85.7823H161.995C162.619 85.7816 163.217 85.5462 163.658 85.1277C164.099 84.7091 164.348 84.1416 164.348 83.5497V82.2424C164.348 81.6505 164.099 81.083 163.658 80.6645C163.217 80.2459 162.619 80.0105 161.995 80.0098H120.091Z" fill="#3F3D56"/>
<path d="M174.729 17.0745V42.3916C170.489 43.4499 166.049 43.5713 161.752 42.7465C157.455 41.9216 153.414 40.1725 149.941 37.6337C146.468 35.0949 143.656 31.8341 141.719 28.102C139.783 24.37 138.775 20.2663 138.772 16.1067C138.772 15.3642 138.804 14.6295 138.867 13.9025H154.598C155.353 13.9031 156.096 13.7277 156.761 13.3915C157.427 13.0554 157.996 12.569 158.417 11.9751C158.838 11.3813 159.098 10.6982 159.175 9.98634C159.252 9.27444 159.143 8.55554 158.857 7.89307H165.048C166.319 7.89263 167.578 8.12979 168.752 8.59101C169.927 9.05223 170.994 9.72846 171.893 10.5811C172.792 11.4337 173.505 12.446 173.992 13.5602C174.478 14.6743 174.729 15.8685 174.729 17.0745Z" fill="#F0F0F0"/>
<path d="M131.785 141.068C131.785 141.601 131.764 142.128 131.719 142.649H117.374C116.103 142.649 114.845 142.411 113.671 141.95C112.497 141.489 111.43 140.812 110.531 139.96C109.632 139.107 108.92 138.095 108.433 136.981C107.947 135.867 107.697 134.673 107.697 133.467V121.017C110.704 120.646 113.759 120.888 116.66 121.725C119.561 122.563 122.24 123.977 124.52 125.874C126.799 127.772 128.626 130.108 129.879 132.728C131.132 135.348 131.782 138.191 131.785 141.068H131.785Z" fill="#0083B7"/>
<path d="M16.0901 119.223C16.4931 119.391 16.9501 119.401 17.3606 119.25C17.7712 119.099 18.1019 118.799 18.2801 118.417L31.2026 90.6303C31.4984 89.9944 31.5888 89.2896 31.4623 88.605C31.3359 87.9204 30.9983 87.2867 30.4922 86.7841C29.9862 86.2815 29.3344 85.9326 28.6193 85.7815C27.9043 85.6304 27.158 85.6839 26.475 85.9351H26.475C25.6858 86.2211 25.0255 86.7576 24.6063 87.4533C24.5396 87.5634 24.4791 87.6768 24.4251 87.793L11.5026 115.58C11.4145 115.769 11.3666 115.973 11.3616 116.18C11.3567 116.387 11.3947 116.593 11.4735 116.786C11.5524 116.979 11.6705 117.155 11.8212 117.305C11.9719 117.454 12.1522 117.574 12.3518 117.658L16.0901 119.223Z" fill="#0083B7"/>
<path d="M30.6721 102.038L17.8901 99.3431L21.0538 91.4026C21.5928 89.4618 22.847 87.7686 24.5891 86.63C26.3312 85.4914 28.4456 84.9829 30.549 85.1967L30.6722 85.2097L30.6721 102.038Z" fill="#2F2E41"/>
<path d="M56.4898 119.62C56.1139 119.62 55.7462 119.516 55.4311 119.321C55.1161 119.126 54.8673 118.849 54.7148 118.523L41.7923 90.7363C41.3813 89.8522 41.3431 88.8522 41.6856 87.9422C42.028 87.0322 42.725 86.2813 43.6332 85.844C44.5414 85.4067 45.5917 85.3162 46.568 85.5913C47.5443 85.8663 48.3724 86.4859 48.8819 87.3225V87.3224C48.9535 87.4406 49.0185 87.5623 49.0764 87.687L61.9989 115.474C62.2064 115.92 62.2186 116.426 62.0328 116.881C61.847 117.336 61.4784 117.702 61.0082 117.898L57.1432 119.516L57.1412 119.512C56.9323 119.584 56.7119 119.62 56.4898 119.62Z" fill="#0083B7"/>
<path d="M38.6146 110.078C38.1743 110.079 37.752 110.245 37.4407 110.541C37.1293 110.836 36.9541 111.237 36.9536 111.654V143.964C36.9541 144.382 37.1293 144.783 37.4407 145.078C37.752 145.374 38.1743 145.54 38.6146 145.54H42.7006C43.141 145.54 43.5632 145.374 43.8746 145.078C44.186 144.783 44.3611 144.382 44.3616 143.964V111.654C44.3611 111.237 44.186 110.836 43.8746 110.541C43.5632 110.245 43.141 110.079 42.7006 110.078H38.6146Z" fill="#0083B7"/>
<path d="M30.5331 110.078C30.0927 110.079 29.6705 110.245 29.3591 110.541C29.0477 110.836 28.8726 111.237 28.8721 111.654V143.964C28.8726 144.382 29.0477 144.783 29.3591 145.078C29.6705 145.374 30.0927 145.54 30.5331 145.54H34.6191C35.0595 145.54 35.4817 145.374 35.7931 145.078C36.1045 144.783 36.2796 144.382 36.2801 143.964V111.654C36.2796 111.237 36.1045 110.836 35.7931 110.541C35.4817 110.245 35.0595 110.079 34.6191 110.078H30.5331Z" fill="#0083B7"/>
<path d="M36.4948 76.2281C44.2923 76.2281 50.6134 70.2308 50.6134 62.8328C50.6134 55.4348 44.2923 49.4375 36.4948 49.4375C28.6973 49.4375 22.3762 55.4348 22.3762 62.8328C22.3762 70.2308 28.6973 76.2281 36.4948 76.2281Z" fill="#0083B7"/>
<path d="M41.1932 68.4559C42.1084 68.4318 43.2474 68.4017 44.1249 67.7935C44.3862 67.605 44.6009 67.3646 44.7539 67.089C44.9069 66.8135 44.9946 66.5096 45.0108 66.1985C45.0267 65.9774 44.9884 65.7559 44.8991 65.5511C44.8097 65.3464 44.6717 65.1641 44.4958 65.0184C44.0375 64.6509 43.3682 64.5647 42.647 64.7658L43.3942 59.5848L42.8457 59.5135L41.9672 65.6045L42.4253 65.405C42.9564 65.1739 43.6854 65.0563 44.1384 65.4195C44.2496 65.5145 44.3363 65.6325 44.3916 65.7644C44.447 65.8963 44.4695 66.0385 44.4575 66.18C44.4441 66.4115 44.3782 66.6376 44.2645 66.8428C44.1507 67.048 43.9917 67.2276 43.7983 67.3693C43.1154 67.8425 42.2075 67.9036 41.1778 67.9309L41.1932 68.4559Z" fill="#2F2E41"/>
<path d="M49.089 60.0317H46.107V60.557H49.089V60.0317Z" fill="#2F2E41"/>
<path d="M39.6766 60.0317H36.6946V60.557H39.6766V60.0317Z" fill="#2F2E41"/>
<path d="M50.4843 119.784L45.4027 84.5881C45.3482 84.2107 45.1515 83.8648 44.8489 83.6144C44.5464 83.364 44.1584 83.226 43.757 83.226H39.9213C39.9373 83.1393 39.9456 83.0515 39.9461 82.9634V81.6501C39.9461 81.2322 39.7711 80.8313 39.4596 80.5358C39.1481 80.2403 38.7257 80.0742 38.2851 80.0742H34.9631C34.5226 80.0742 34.1001 80.2403 33.7886 80.5358C33.4771 80.8313 33.3021 81.2322 33.3021 81.6501V82.9634C33.3027 83.0515 33.311 83.1393 33.327 83.226H29.4913C29.0898 83.2261 28.7019 83.364 28.3993 83.6144C28.0968 83.8648 27.9 84.2107 27.8455 84.5881L22.7639 119.784C22.7317 120.006 22.7502 120.233 22.8182 120.449C22.8861 120.665 23.0019 120.864 23.1579 121.033C23.3138 121.203 23.5061 121.339 23.722 121.432C23.9379 121.525 24.1723 121.573 24.4095 121.573H48.8387C49.0759 121.573 49.3103 121.525 49.5262 121.432C49.7421 121.339 49.9344 121.203 50.0903 121.033C50.2463 120.864 50.3621 120.665 50.43 120.449C50.498 120.233 50.5165 120.006 50.4843 119.784Z" fill="#2F2E41"/>
<path d="M42.5761 102.038V85.2096L42.6993 85.1967C44.8052 84.9831 46.922 85.4933 48.6652 86.6346C50.4084 87.7758 51.6623 89.4725 52.199 91.4164L55.3581 99.3431L42.5761 102.038Z" fill="#2F2E41"/>
<path d="M35.7838 76.6461L26.0183 73.0499C24.4215 72.4618 22.8157 71.8917 21.2273 71.2834C20.5469 71.0584 19.9201 70.7079 19.3831 70.2521C18.9156 69.7826 18.597 69.1975 18.4637 68.5641C18.125 67.2058 18.1862 65.7208 18.2104 64.3347C18.2291 62.8184 18.3607 61.3052 18.604 59.8064C19.0304 56.99 20.0319 54.2795 21.5524 51.8269C24.291 47.5637 29.0096 44.3561 34.4371 44.6121C36.9499 44.7306 39.4771 45.5861 41.344 47.2161C41.5388 47.4369 41.7573 47.6378 41.996 47.8156C42.1619 47.8746 42.3425 47.8861 42.5152 47.8486C42.7431 47.8347 42.9711 47.8241 43.1993 47.8168C43.9911 47.7851 44.7843 47.8167 45.5705 47.9112C47.0033 48.058 48.3613 48.593 49.4823 49.4522C50.4153 50.2137 51.1744 51.2886 51.2525 52.4832C51.2902 53.0316 51.1947 53.5809 50.9732 54.0887C50.7517 54.5964 50.4102 55.0492 49.9751 55.4119C48.8101 56.3435 47.1478 56.0161 45.7502 55.9458L40.6305 55.6885L38.0365 55.5581C37.5024 55.5313 37.5039 56.3193 38.0365 56.3461L44.9311 56.6926C46.039 56.7483 47.1809 56.8848 48.2898 56.8218C49.1418 56.7852 49.9553 56.4747 50.5967 55.9413C51.1824 55.4307 51.6188 54.7849 51.8631 54.0668C52.1075 53.3486 52.1515 52.5827 51.991 51.8436C51.6355 50.2315 50.371 48.898 48.8886 48.1047C46.8715 47.0252 44.4625 46.9218 42.2056 47.0814L42.4992 47.1968C39.9461 44.597 36.0355 43.4993 32.3642 43.8835C28.4878 44.2891 25.0401 46.3408 22.563 49.1464C19.8012 52.2744 18.2961 56.1749 17.711 60.1856C17.4066 62.3511 17.3063 64.538 17.4115 66.7204C17.4072 67.6828 17.5807 68.6385 17.9243 69.5441C18.3163 70.4255 19.025 71.1464 19.9245 71.5787C20.9557 72.051 22.0158 72.4642 23.0992 72.816L26.697 74.1409L33.7642 76.7434L35.5631 77.4059C36.0616 77.5895 36.2776 76.8279 35.7838 76.6461Z" fill="#2F2E41"/>
<path d="M20.4292 49.8692C19.5805 49.8692 18.7509 49.6304 18.0453 49.1831C17.3396 48.7357 16.7897 48.0999 16.4649 47.356C16.1401 46.6121 16.0551 45.7935 16.2207 45.0038C16.3863 44.2141 16.7949 43.4887 17.395 42.9193C17.9951 42.35 18.7597 41.9622 19.5921 41.8052C20.4244 41.6481 21.2872 41.7287 22.0713 42.0368C22.8554 42.345 23.5255 42.8668 23.997 43.5363C24.4685 44.2058 24.7202 44.9929 24.7202 45.798C24.7189 46.8774 24.2664 47.9122 23.462 48.6754C22.6575 49.4386 21.5668 49.8679 20.4292 49.8692ZM20.4292 42.5149C19.7448 42.5149 19.0757 42.7074 18.5067 43.0682C17.9376 43.429 17.4941 43.9417 17.2322 44.5416C16.9703 45.1416 16.9017 45.8017 17.0352 46.4386C17.1688 47.0754 17.4983 47.6604 17.9823 48.1196C18.4663 48.5787 19.0828 48.8914 19.7541 49.0181C20.4254 49.1448 21.1212 49.0798 21.7535 48.8313C22.3858 48.5828 22.9262 48.162 23.3065 47.6221C23.6867 47.0822 23.8897 46.4474 23.8897 45.798C23.8886 44.9276 23.5237 44.0931 22.875 43.4776C22.2262 42.8621 21.3467 42.5159 20.4292 42.5149Z" fill="#2F2E41"/>
<path d="M92.1586 75.0983L82.871 68.3588L75.7676 77.1705L85.0552 83.91L92.1586 75.0983Z" fill="#F0F0F0"/>
<path d="M39.6693 14.9364C41.1367 14.9353 42.584 15.2602 43.8953 15.8852C45.2066 16.5101 46.3455 17.4177 47.2206 18.5353L52.6438 11.8078L36.3717 0L23.9264 15.4385L30.9396 20.5276C31.6414 18.8761 32.8476 17.4614 34.4031 16.4652C35.9586 15.4689 37.7925 14.9365 39.6693 14.9364Z" fill="#F0F0F0"/>
<path d="M148.021 102.418H128.127C127.393 102.417 126.689 102.14 126.17 101.648C125.651 101.155 125.359 100.488 125.358 99.7914V98.484C125.359 97.7876 125.651 97.12 126.17 96.6276C126.689 96.1352 127.393 95.8583 128.127 95.8575H148.021C148.755 95.8583 149.458 96.1352 149.977 96.6276C150.496 97.12 150.788 97.7876 150.789 98.484V99.7914C150.788 100.488 150.496 101.155 149.977 101.648C149.458 102.14 148.755 102.417 148.021 102.418Z" fill="#0083B7"/>
<path d="M150.117 99.8976H130.223C129.452 99.8967 128.713 99.6059 128.169 99.0889C127.624 98.5719 127.317 97.8709 127.316 97.1397V95.8323C127.317 95.1012 127.624 94.4002 128.169 93.8832C128.713 93.3661 129.452 93.0753 130.223 93.0745H150.117C150.888 93.0753 151.627 93.3661 152.171 93.8832C152.716 94.4002 153.023 95.1012 153.024 95.8323V97.1397C153.023 97.8709 152.716 98.5719 152.171 99.0889C151.627 99.6059 150.888 99.8967 150.117 99.8976ZM130.223 93.5998C129.599 93.6005 129.001 93.8359 128.56 94.2544C128.119 94.673 127.871 95.2404 127.87 95.8323V97.1397C127.871 97.7316 128.119 98.2991 128.56 98.7176C129.001 99.1362 129.599 99.3716 130.223 99.3723H150.117C150.741 99.3716 151.339 99.1362 151.78 98.7176C152.221 98.2991 152.469 97.7316 152.47 97.1397V95.8323C152.469 95.2404 152.221 94.673 151.78 94.2544C151.339 93.8359 150.741 93.6005 150.117 93.5998H130.223Z" fill="#3F3D56"/>
</svg>
